<svg width="24" height="24" viewBox="0 0 24 24" fill="none" xmlns="http://www.w3.org/2000/svg">
<path d="M18.6665 20H3.99984V5.33333H12.8132L14.1465 4H3.99984C3.64622 4 3.30708 4.14048 3.05703 4.39052C2.80698 4.64057 2.6665 4.97971 2.6665 5.33333V20C2.6665 20.3536 2.80698 20.6928 3.05703 20.9428C3.30708 21.1929 3.64622 21.3333 3.99984 21.3333H18.6665C19.0201 21.3333 19.3593 21.1929 19.6093 20.9428C19.8594 20.6928 19.9998 20.3536 19.9998 20V10L18.6665 11.3333V20Z" fill="url(#paint0_linear_1839_8181)"/>
<path d="M22.3531 3.89313L20.1065 1.64647C20.0068 1.54649 19.8883 1.46716 19.7579 1.41304C19.6275 1.35891 19.4877 1.33105 19.3465 1.33105C19.2053 1.33105 19.0655 1.35891 18.935 1.41304C18.8046 1.46716 18.6862 1.54649 18.5865 1.64647L9.44648 10.8398L8.70648 14.0465C8.67495 14.2019 8.67826 14.3624 8.71618 14.5164C8.7541 14.6704 8.82567 14.8141 8.92576 14.9371C9.02585 15.0602 9.15196 15.1595 9.29502 15.228C9.43808 15.2964 9.59454 15.3324 9.75314 15.3331C9.83512 15.3422 9.91783 15.3422 9.99981 15.3331L13.2331 14.6198L22.3531 5.41313C22.4531 5.31343 22.5324 5.19497 22.5866 5.06456C22.6407 4.93414 22.6686 4.79433 22.6686 4.65313C22.6686 4.51193 22.6407 4.37212 22.5866 4.24171C22.5324 4.11129 22.4531 3.99284 22.3531 3.89313ZM12.5398 13.3865L10.0998 13.9265L10.6665 11.5065L17.5465 4.5798L19.4265 6.4598L12.5398 13.3865ZM20.1798 5.70647L18.2998 3.82647L19.3331 2.77313L21.2265 4.66647L20.1798 5.70647Z" fill="#121F4C"/>
<defs>
<linearGradient id="paint0_linear_1839_8181" x1="-3.62453" y1="7.85185" x2="29.1939" y2="7.72439" gradientUnits="userSpaceOnUse">
<stop stop-color="#121F4C"/>
<stop offset="0.401042" stop-color="#0E4858"/>
<stop offset="0.651042" stop-color="#0D585D"/>
<stop offset="0.991267" stop-color="#0B6C64"/>
<stop offset="1" stop-color="#0A7A68"/>
</linearGradient>
</defs>
</svg>
