<svg width="21" height="20" viewBox="0 0 21 20" fill="none" xmlns="http://www.w3.org/2000/svg">
<path d="M0.501953 10.0023C0.502516 12.3836 1.35242 14.6867 2.89892 16.4975C4.44541 18.3083 6.58707 19.5081 8.93895 19.8813V12.8923H6.40195V10.0023H8.94195V7.80232C8.88587 7.28741 8.94385 6.76647 9.11177 6.27649C9.2797 5.78651 9.55345 5.33952 9.91359 4.96726C10.2737 4.59499 10.7114 4.3066 11.1956 4.12255C11.6797 3.9385 12.1985 3.86331 12.715 3.90232C13.465 3.91432 14.215 3.98132 14.955 4.10232V6.56132H13.691C13.4761 6.53319 13.2577 6.55369 13.0519 6.62131C12.846 6.68893 12.658 6.80194 12.5017 6.95199C12.3454 7.10204 12.2249 7.2853 12.1489 7.48822C12.073 7.69114 12.0436 7.90853 12.063 8.12432V10.0023H14.834L14.391 12.8933H12.063V19.8813C13.9506 19.583 15.7132 18.7501 17.1421 17.4811C18.571 16.2121 19.6064 14.5603 20.1257 12.7211C20.645 10.882 20.6264 8.93257 20.0721 7.10366C19.5179 5.27475 18.4512 3.64296 16.9983 2.40147C15.5455 1.15998 13.7673 0.360794 11.8743 0.098529C9.98135 -0.163736 8.05287 0.121903 6.31721 0.921628C4.58154 1.72135 3.11137 3.00167 2.08076 4.611C1.05015 6.22033 0.502256 8.09128 0.501953 10.0023Z" fill="#4466DD"/>
</svg>
