<svg width="207" height="150" viewBox="0 0 207 150" fill="none" xmlns="http://www.w3.org/2000/svg">
<g clip-path="url(#clip0_2857_25626)">
<path opacity="0.18" d="M33.0136 31.4073C26.898 32.7038 20.5412 34.1108 15.6317 37.9827C11.4859 41.249 5.02615 47.2791 3.06886 52.1786C-5.2226 72.8746 4.15178 98.058 22.3478 110.937C30.9055 116.995 41.5714 119.927 49.2623 127.058C54.1267 131.568 57.5337 137.538 62.7096 141.684C70.2724 147.736 80.4834 149.076 90.1468 149.724C96.8603 150.179 103.835 150.375 110.064 147.822C114.566 145.978 118.38 142.814 122.124 139.696L146.926 118.985C150.911 115.661 154.637 110.367 159.825 110.402C206.524 110.736 209.672 55.7792 138.001 31.4374C131.684 29.2917 127.353 23.3269 121.418 20.2691C109.159 13.95 95.0513 15.9977 82.687 20.3696C66.9885 25.9349 49.305 27.9425 33.0136 31.4073V31.4073Z" fill="#AABCFB"/>
<path opacity="0.05" d="M195.77 120.065C197.725 120.098 200.242 120.585 200.544 122.515C200.707 123.52 200.132 124.497 199.509 125.309C195.612 130.402 189.154 132.977 182.782 133.668C176.411 134.359 169.989 133.392 163.627 132.608C154.434 131.472 145.205 130.718 135.938 130.346C129.35 130.08 122.421 129.914 116.747 126.558C115.695 125.937 114.659 125.161 114.154 124.045C113.149 121.826 114.737 119.125 116.918 118.047C119.099 116.97 121.662 117.075 124.094 117.206C147.978 118.492 171.845 120.065 195.77 120.065V120.065Z" fill="#000405"/>
<path d="M195.853 31.759C195.853 31.759 187.353 42.7515 185.74 44.5932C182.797 47.9399 180.901 52.3294 180.901 52.3294L176.629 70.5053L171.855 69.2314L161.476 66.4676C161.476 66.4676 165.164 56.5329 163.378 53.5178C160.996 49.4977 163.056 46.9852 163.599 45.259C164.604 42.0605 159.471 36.2138 159.471 36.2138L156.182 21.4827L161.147 20.8193L164.75 32.7615L170.923 38.2716L175.32 38.5053C175.32 38.5053 178.637 39.1887 181.049 38.0731C183.355 37.0028 191.504 27.8143 191.504 27.8143L194.828 30.8294L195.853 31.759ZM155.132 50.3997V115.867C155.131 116.687 154.969 117.5 154.655 118.257C154.341 119.015 153.881 119.703 153.3 120.283C152.72 120.863 152.031 121.323 151.273 121.636C150.515 121.95 149.703 122.111 148.883 122.111H50.9708C50.1504 122.111 49.3379 121.949 48.5799 121.635C47.8219 121.321 47.1333 120.861 46.5532 120.28C45.9732 119.7 45.5131 119.011 45.1994 118.253C44.8856 117.495 44.7243 116.683 44.7246 115.862V50.3997C44.724 49.5792 44.885 48.7665 45.1987 48.0082C45.5123 47.25 45.9724 46.561 46.5525 45.9806C47.1326 45.4003 47.8214 44.94 48.5795 44.626C49.3377 44.3121 50.1503 44.1507 50.9708 44.151H148.883C150.54 44.151 152.13 44.8093 153.301 45.9812C154.473 47.1531 155.132 48.7425 155.132 50.3997V50.3997Z" fill="#AABCFB"/>
<path d="M153.438 46.1483H46.25L47.1193 45.4825C47.1595 45.4477 47.2014 45.415 47.245 45.3845L98.2349 6.2991L99.8455 5.06543L151.722 44.8343L153.438 46.1483Z" fill="#AABCFB"/>
<path d="M155.132 50.3991L153.828 51.3414L144.333 58.2182L98.2347 91.6077L53.9005 57.4645L44.7246 50.3991L44.8427 49.1856C45.0662 48.0478 45.6042 46.9954 46.3955 46.1479C46.6176 45.9061 46.8596 45.6833 47.1191 45.4821C47.1592 45.4472 47.2012 45.4145 47.2447 45.3841C48.3209 44.5812 49.6282 44.1484 50.9708 44.1504H148.883C150.435 44.1512 151.932 44.7297 153.082 45.7733C154.231 46.8169 154.951 48.2509 155.102 49.7961C155.122 49.9965 155.132 50.1978 155.132 50.3991V50.3991Z" fill="#AABCFB"/>
<path opacity="0.61" d="M47.1193 45.4775C46.8611 45.6802 46.6192 45.9029 46.3957 46.1434H46.25L47.1193 45.4775Z" fill="url(#paint0_linear_2857_25626)"/>
<path opacity="0.61" d="M155.132 50.3996L153.828 51.3443L144.333 58.2187L98.2347 91.6081L53.9005 57.4674L44.7246 50.3996L44.8427 49.1885C45.0663 48.05 45.6042 46.9969 46.3955 46.1483C46.6189 45.9078 46.8608 45.6852 47.1191 45.4825L47.2447 45.387L98.2347 6.2991L99.8452 5.06543L151.722 44.8343C152.658 45.3107 153.458 46.0154 154.049 46.8833C154.639 47.7511 155.001 48.754 155.101 49.7991C155.122 49.9986 155.132 50.1991 155.132 50.3996V50.3996Z" fill="url(#paint1_linear_2857_25626)"/>
<path d="M144.333 45.5626V58.2209L127.32 70.5325L123.418 73.3666L98.2346 91.6078L74.5486 73.3666L70.8828 70.5425L53.9004 57.4772V45.5626C53.9004 44.5784 54.2914 43.6345 54.9873 42.9385C55.6833 42.2425 56.6272 41.8516 57.6114 41.8516H140.624C141.608 41.8522 142.551 42.2435 143.247 42.9394C143.942 43.6353 144.333 44.5788 144.333 45.5626V45.5626Z" fill="white"/>
<path d="M131.865 56.661H64.7792C64.4047 56.661 64.0456 56.5123 63.7808 56.2475C63.516 55.9826 63.3672 55.6235 63.3672 55.249C63.3672 55.0635 63.4037 54.8799 63.4747 54.7086C63.5456 54.5373 63.6496 54.3816 63.7808 54.2505C63.9119 54.1194 64.0676 54.0154 64.2389 53.9444C64.4102 53.8734 64.5938 53.8369 64.7792 53.8369H131.865C132.05 53.8369 132.234 53.8734 132.405 53.9444C132.576 54.0154 132.732 54.1194 132.863 54.2505C132.994 54.3816 133.098 54.5373 133.169 54.7086C133.24 54.8799 133.277 55.0635 133.277 55.249C133.277 55.6235 133.128 55.9826 132.863 56.2475C132.598 56.5123 132.239 56.661 131.865 56.661Z" fill="url(#paint2_linear_2857_25626)"/>
<path d="M131.865 65.0155H64.7792C64.4047 65.0155 64.0456 64.8668 63.7808 64.6019C63.516 64.3371 63.3672 63.978 63.3672 63.6035C63.3672 63.229 63.516 62.8698 63.7808 62.605C64.0456 62.3402 64.4047 62.1914 64.7792 62.1914H131.865C132.239 62.1914 132.598 62.3402 132.863 62.605C133.128 62.8698 133.277 63.229 133.277 63.6035C133.277 63.978 133.128 64.3371 132.863 64.6019C132.598 64.8668 132.239 65.0155 131.865 65.0155Z" fill="url(#paint3_linear_2857_25626)"/>
<path d="M127.32 70.543L123.418 73.3671H74.5482L70.8799 70.543H127.32Z" fill="url(#paint4_linear_2857_25626)"/>
<path opacity="0.05" d="M98.2341 91.6084L57.3145 122.116H139.998L98.2341 91.6084Z" fill="#000405"/>
<path d="M62.9383 22.6636C60.878 18.244 53.1393 18.9701 53.1393 18.9701C57.9132 16.1535 56.9986 9.00024 56.9408 8.57812C59.0287 14.8143 66.2373 13.4374 66.883 13.3017C62.0966 14.4826 62.9383 22.6636 62.9383 22.6636V22.6636ZM49.5212 31.7314C48.2122 28.9223 43.29 29.3847 43.29 29.3847C46.4056 27.5329 45.6996 22.7666 45.6996 22.7666V22.7942C47.0363 26.7364 51.6091 25.862 52.0162 25.7766C48.986 26.5304 49.5212 31.7314 49.5212 31.7314Z" fill="#AABCFB"/>
<path d="M181.32 23.2916C181.926 22.804 182.694 22.5619 183.471 22.6132C184.039 22.5901 184.595 22.7821 185.028 23.1509C185.362 23.5256 185.574 23.9925 185.636 24.4901C185.759 25.1069 185.805 25.7364 185.775 26.3645C185.719 27.5177 185.42 28.7388 185.918 29.7816C186.037 30.0293 186.196 30.2552 186.39 30.4499C186.615 30.7017 186.928 30.8574 187.265 30.8846C187.432 30.892 187.596 30.8394 187.728 30.7361C187.86 30.6329 187.95 30.4859 187.983 30.3218C187.816 30.6942 187.565 31.0232 187.251 31.2836C186.936 31.5439 186.566 31.7287 186.169 31.8236C185.772 31.9185 185.359 31.921 184.961 31.8309C184.562 31.7409 184.19 31.5607 183.873 31.3042L184.31 32.1911C183.948 32.0975 183.597 31.9644 183.265 31.7941C182.197 31.2137 181.599 30.0353 181.315 28.8444C181.064 27.7514 181.013 26.6233 180.777 25.5253C180.594 24.6836 180.639 23.8997 181.32 23.2916V23.2916Z" fill="#3F3D56"/>
<path d="M180.998 24.4973C181.215 24.4903 181.431 24.5235 181.636 24.5953C181.806 24.6659 181.953 24.7816 182.062 24.9301C182.17 25.0785 182.236 25.2538 182.252 25.437C182.261 25.6211 182.216 25.8039 182.124 25.9632C182.031 26.1225 181.894 26.2513 181.729 26.334C181.514 26.4223 181.283 26.4626 181.051 26.4521C180.84 26.4521 180.626 26.4521 180.415 26.432C180.355 26.4321 180.295 26.4175 180.242 26.3893C180.188 26.345 180.147 26.2868 180.123 26.2209C179.986 25.9472 179.882 25.6578 179.814 25.3591C179.641 24.4345 180.264 24.4898 180.998 24.4973V24.4973Z" fill="#AABCFB"/>
<path d="M176.91 33.3193C176.91 33.3193 176.87 34.0455 176.82 34.9902C176.777 35.7867 176.724 36.749 176.682 37.548C176.608 38.8995 176.028 40.1737 175.056 41.1158C174.488 41.6962 173.134 42.7791 172.101 42.3947C171.599 42.2088 171.581 41.5756 171.687 41.1962C171.919 40.5045 172.049 39.7824 172.071 39.053C172.088 38.4626 172.035 37.8722 171.913 37.2942C171.265 35.6786 176.91 33.3193 176.91 33.3193Z" fill="url(#paint5_linear_2857_25626)"/>
<path d="M176.91 33.3193C176.91 33.3193 176.87 34.0455 176.82 34.9902C176.423 35.8746 176.051 36.5957 175.847 36.955C175.438 37.6811 173.754 38.8244 172.078 39.053C172.095 38.4626 172.042 37.8722 171.92 37.2942C171.264 35.6786 176.91 33.3193 176.91 33.3193Z" fill="url(#paint6_linear_2857_25626)"/>
<path d="M171.994 23.6985C171.254 23.7434 170.531 23.9403 169.871 24.2768C169.21 24.6132 168.626 25.0821 168.154 25.6542C167.683 26.2262 167.334 26.8892 167.13 27.6019C166.926 28.3145 166.871 29.0616 166.969 29.7964C167.136 31.9917 167.7 34.1384 168.632 36.1331C170.391 39.1482 174.848 36.6683 175.554 35.4271C176.26 34.1859 178.969 28.5879 177.83 27.0025C177.046 25.9321 174.873 23.5829 171.994 23.6985V23.6985Z" fill="url(#paint7_linear_2857_25626)"/>
<path d="M170.41 20.6359C172.301 20.0835 174.319 20.1424 176.174 20.8042C178.001 21.4977 179.576 22.9248 180.272 24.7515C180.871 26.4442 180.814 28.2999 180.111 29.9525C179.404 31.5916 178.278 33.0154 176.845 34.0806C176.476 32.95 177.614 31.9449 178.056 30.8419C178.159 30.6381 178.181 30.4032 178.119 30.1836C177.958 29.7741 177.345 29.7289 176.996 29.9952C176.647 30.2615 176.493 30.7113 176.365 31.1309C176.704 29.3344 176.956 27.2238 175.684 25.9073C174.931 25.1284 173.792 24.8369 172.707 24.8268C171.71 24.8239 170.723 25.0255 169.808 25.4192C168.892 25.8129 168.066 26.3904 167.383 27.1158C166.983 27.5454 166.415 28.0731 165.908 27.7766C165.75 27.6686 165.626 27.5178 165.551 27.3419C164.051 24.3721 167.991 21.2992 170.41 20.6359V20.6359Z" fill="#3F3D56"/>
<path d="M172.838 23.9552C171.581 23.4025 170.262 22.9502 168.898 22.9502C167.534 22.9502 166.119 23.4125 165.217 24.4376C164.746 25.0089 164.403 25.6747 164.212 26.3899C164.06 26.8374 164.001 27.3108 164.036 27.7819C164.091 28.1235 164.175 28.4597 164.287 28.7869C164.524 29.601 164.624 30.5457 164.109 31.2291C164.013 31.3654 163.888 31.4782 163.743 31.5592C163.598 31.6401 163.436 31.687 163.27 31.6964C163.103 31.6994 162.942 31.6415 162.815 31.5337C162.688 31.426 162.605 31.2757 162.581 31.111C162.36 31.7366 162.722 32.4703 163.297 32.7994C163.594 32.9503 163.919 33.0366 164.251 33.0526C164.583 33.0687 164.915 33.0141 165.225 32.8924C165.485 32.8103 165.726 32.678 165.936 32.503C166.142 32.3039 166.312 32.07 166.438 31.812C166.963 30.8597 167.227 29.802 167.619 28.7743C168.011 27.7467 168.579 26.7643 169.506 26.1864C170.241 25.7854 171.066 25.5803 171.903 25.5909C172.735 25.5633 173.571 25.6311 174.4 25.5557C175.23 25.4803 174.629 24.9879 174.272 24.7291C173.822 24.4225 173.341 24.1632 172.838 23.9552V23.9552Z" fill="#3F3D56"/>
<path d="M206.584 14.9475C206.797 15.1134 204.797 16.6712 204.797 16.6712C204.797 16.6712 203.863 18.2817 202.913 18.729C201.963 19.1762 194.827 30.8269 194.827 30.8269L192.011 28.2742L198.086 20.1008C198.086 20.1008 200.096 16.2491 199.873 14.5732C199.873 14.5732 199.993 12.5933 200.599 13.5129C201.026 14.1686 200.752 15.2013 201.257 15.3119C201.313 15.3169 201.369 15.3046 201.418 15.2767C201.837 15.0224 202.221 14.715 202.561 14.3621C203.566 13.4048 204.767 12.0732 204.767 12.0732C204.767 12.0732 205.425 11.7943 205.342 12.0732C205.259 12.3521 204.051 14.234 203.983 14.3345C204.096 14.2315 205.95 12.5757 206.244 12.7038C206.538 12.832 204.807 14.739 204.707 14.8496C204.815 14.7742 206.792 13.3973 206.94 13.5204C207.219 13.7541 205.433 15.3043 205.285 15.4224C205.398 15.3621 206.38 14.7867 206.584 14.9475V14.9475Z" fill="url(#paint8_linear_2857_25626)"/>
<path d="M204.463 16.1408C204.313 16.1896 204.154 16.2025 203.998 16.1785C203.492 16.1399 202.983 16.1315 202.475 16.1533C202.134 16.1684 201.428 16.4046 201.41 15.8745C201.41 15.7337 201.445 15.5956 201.438 15.4549C201.438 15.3946 201.423 15.3342 201.413 15.2739C201.832 15.0196 202.216 14.7122 202.556 14.3594C202.71 14.4108 202.855 14.4844 202.988 14.578C203.323 14.794 203.653 15.0076 203.978 15.2187C204.154 15.3342 204.33 15.4498 204.498 15.5755C204.573 15.622 204.632 15.6892 204.669 15.7689C204.685 15.8453 204.673 15.925 204.635 15.9933C204.598 16.0617 204.536 16.114 204.463 16.1408V16.1408Z" fill="url(#paint9_linear_2857_25626)"/>
<path d="M155.401 1.86402C155.129 1.89417 156.009 4.27106 156.009 4.27106C156.009 4.27106 155.953 6.13287 156.524 7.01226C157.094 7.89166 157.014 21.3716 157.014 21.3716L160.752 20.869L159.903 10.7158C159.903 10.7158 160.227 6.38412 161.3 5.0801C161.3 5.0801 162.24 3.33387 161.242 3.79618C160.534 4.12784 160.22 5.14794 159.735 4.97709C159.684 4.95206 159.643 4.91158 159.617 4.86151C159.389 4.4261 159.22 3.96221 159.114 3.48211C158.76 2.13789 158.448 0.374073 158.448 0.374073C158.448 0.374073 158.046 -0.203817 157.981 0.0750776C157.916 0.353972 157.938 2.58764 157.941 2.71578C157.898 2.57257 157.2 0.180605 156.873 0.137892C156.546 0.0951781 157.021 2.62533 157.051 2.77106C156.996 2.65045 156.046 0.439399 155.85 0.464525C155.491 0.517289 156.205 2.78362 156.257 2.95196C156.187 2.84141 155.657 1.8389 155.401 1.86402V1.86402Z" fill="url(#paint10_linear_2857_25626)"/>
<path d="M156.566 3.99714C156.668 4.11638 156.796 4.21016 156.941 4.27101C157.391 4.50604 157.828 4.76781 158.247 5.05493C158.531 5.2484 159.001 5.82629 159.3 5.37905C159.38 5.26348 159.418 5.1278 159.498 5.00971C159.535 4.95976 159.574 4.91194 159.617 4.86649C159.388 4.43108 159.219 3.96719 159.114 3.48709C158.956 3.44977 158.793 3.43622 158.632 3.44689L157.453 3.46951C157.242 3.46951 157.031 3.46951 156.82 3.49714C156.731 3.49674 156.643 3.52299 156.569 3.57252C156.517 3.63115 156.489 3.70637 156.488 3.78436C156.488 3.86236 156.516 3.93791 156.566 3.99714V3.99714Z" fill="url(#paint11_linear_2857_25626)"/>
<path d="M142.151 120.404C141.146 122.457 140.415 124.053 140.415 124.053L127.77 124.656C127.77 124.656 129.865 119.11 133.275 120.542C134.428 121.025 138.606 120.118 138.606 120.118L138.737 119.698L142.151 120.404Z" fill="url(#paint12_linear_2857_25626)"/>
<path d="M186.97 121.025L185.033 122.111L168.45 104.679L166.621 81.4072L151.501 95.1233C151.501 95.1233 151.905 104.568 146.619 111.957C145.671 113.282 143.744 117.128 142.287 120.133C142.242 120.226 142.197 120.322 142.154 120.415L141.87 120.357L140.882 120.151L138.739 119.709L145.689 91.6183L161.48 66.4775L171.86 69.2414L176.634 70.5152C176.634 70.5152 179.855 76.97 176.634 93.676L174.498 103.239C174.498 103.239 183.106 107.829 185.759 116.91L186.968 121.02L186.97 121.025Z" fill="#3F3D56"/>
<path d="M186.971 121.025L188.938 123.083L183.946 128.289H177.413C177.413 128.289 178.805 125.99 181.589 125.626C184.373 125.262 185.039 122.108 185.039 122.108L186.971 121.025Z" fill="url(#paint13_linear_2857_25626)"/>
<path opacity="0.22" d="M54.247 18.6083L53.144 18.9701C57.9179 16.1535 57.0033 9.00024 56.9455 8.57812C57.0209 8.91732 58.1315 13.6384 57.5259 15.1887C56.7697 17.1259 54.247 18.6083 54.247 18.6083ZM46.3576 27.2465C45.7747 28.053 43.4581 29.2967 43.2998 29.3796C46.4154 27.5279 45.7094 22.7615 45.7094 22.7615V22.7892C45.8325 23.1158 46.9254 26.4575 46.3576 27.2465V27.2465Z" fill="white"/>
<path opacity="0.22" d="M44.9105 53.8366L96.0839 93.211L98.2347 91.608L44.7246 50.3994L44.9105 53.8366ZM99.9281 92.9572L155.132 53.2235V50.5125L98.2347 91.7185L99.9281 92.9572Z" fill="white"/>
<path opacity="0.22" d="M155.101 49.9099L154.95 50.332L153.827 51.4551C154.616 50.0933 152.388 46.9325 152.388 46.9325L151.498 46.2667L148.827 44.2566L98.2344 6.41238L99.8449 5.17871L151.722 44.945C152.657 45.422 153.457 46.1269 154.047 46.9946C154.638 47.8624 155 48.865 155.101 49.9099V49.9099Z" fill="white"/>
<path opacity="0.61" d="M195.853 31.7583C195.853 31.7583 187.353 42.7508 185.74 44.5925C182.798 47.9392 180.901 52.3287 180.901 52.3287L176.629 70.5046L171.855 69.2307C171.855 69.2307 176.313 52.5649 178.104 49.0272C179.896 45.4895 194.823 30.8262 194.823 30.8262L195.853 31.7583Z" fill="url(#paint14_linear_2857_25626)"/>
<path d="M186.968 121.02C186.88 120.769 184.044 112.89 179.785 109.586C175.461 106.229 172.948 101.596 172.948 101.596C171.931 92.7013 171.86 69.2314 171.86 69.2314L176.634 70.5053C176.634 70.5053 179.855 76.9601 176.634 93.6661L174.498 103.229C174.498 103.229 183.106 107.829 185.76 116.91L186.968 121.02ZM151.501 95.1184C151.501 95.1184 151.905 104.563 146.619 111.953C145.672 113.277 143.745 117.123 142.287 120.128L141.87 120.352L140.883 120.146L149.079 94.2943C149.079 94.2943 159.006 82.533 160.823 81.4073C162.639 80.2817 166.622 81.4073 166.622 81.4073L151.501 95.1184Z" fill="#25233A"/>
</g>
<defs>
<linearGradient id="paint0_linear_2857_25626" x1="46.2902" y1="46.8896" x2="47.2525" y2="44.274" gradientUnits="userSpaceOnUse">
<stop offset="0.36" stop-color="#00272E"/>
<stop offset="0.75" stop-color="#3F80A1" stop-opacity="0.25"/>
<stop offset="1" stop-color="#69B9EB" stop-opacity="0"/>
</linearGradient>
<linearGradient id="paint1_linear_2857_25626" x1="86.197" y1="87.181" x2="114.423" y2="10.4272" gradientUnits="userSpaceOnUse">
<stop offset="0.36" stop-color="#00272E"/>
<stop offset="0.75" stop-color="#3F80A1" stop-opacity="0.25"/>
<stop offset="1" stop-color="#69B9EB" stop-opacity="0"/>
</linearGradient>
<linearGradient id="paint2_linear_2857_25626" x1="98.734" y1="35.0781" x2="96.1913" y2="159.287" gradientUnits="userSpaceOnUse">
<stop stop-color="#68E1FD"/>
<stop offset="0.01" stop-color="#67DDF9"/>
<stop offset="0.12" stop-color="#5CB3CE"/>
<stop offset="0.24" stop-color="#538EA9"/>
<stop offset="0.37" stop-color="#4C718B"/>
<stop offset="0.5" stop-color="#465A73"/>
<stop offset="0.63" stop-color="#424A63"/>
<stop offset="0.79" stop-color="#404059"/>
<stop offset="0.99" stop-color="#3F3D56"/>
</linearGradient>
<linearGradient id="paint3_linear_2857_25626" x1="98.9049" y1="35.0808" x2="96.3622" y2="159.292" gradientUnits="userSpaceOnUse">
<stop stop-color="#68E1FD"/>
<stop offset="0.01" stop-color="#67DDF9"/>
<stop offset="0.12" stop-color="#5CB3CE"/>
<stop offset="0.24" stop-color="#538EA9"/>
<stop offset="0.37" stop-color="#4C718B"/>
<stop offset="0.5" stop-color="#465A73"/>
<stop offset="0.63" stop-color="#424A63"/>
<stop offset="0.79" stop-color="#404059"/>
<stop offset="0.99" stop-color="#3F3D56"/>
</linearGradient>
<linearGradient id="paint4_linear_2857_25626" x1="99.8246" y1="35.0983" x2="97.2819" y2="159.309" gradientUnits="userSpaceOnUse">
<stop stop-color="#68E1FD"/>
<stop offset="0.01" stop-color="#67DDF9"/>
<stop offset="0.12" stop-color="#5CB3CE"/>
<stop offset="0.24" stop-color="#538EA9"/>
<stop offset="0.37" stop-color="#4C718B"/>
<stop offset="0.5" stop-color="#465A73"/>
<stop offset="0.63" stop-color="#424A63"/>
<stop offset="0.79" stop-color="#404059"/>
<stop offset="0.99" stop-color="#3F3D56"/>
</linearGradient>
<linearGradient id="paint5_linear_2857_25626" x1="171.636" y1="37.8972" x2="176.91" y2="37.8972" gradientUnits="userSpaceOnUse">
<stop stop-color="#ECC4D7"/>
<stop offset="0.42" stop-color="#EFD4D1"/>
<stop offset="1" stop-color="#F2EAC9"/>
</linearGradient>
<linearGradient id="paint6_linear_2857_25626" x1="174.43" y1="34.9626" x2="173.342" y2="47.161" gradientUnits="userSpaceOnUse">
<stop stop-color="#ECC4D7"/>
<stop offset="0.42" stop-color="#EFD4D1"/>
<stop offset="1" stop-color="#F2EAC9"/>
</linearGradient>
<linearGradient id="paint7_linear_2857_25626" x1="166.926" y1="30.6306" x2="178.109" y2="30.6306" gradientUnits="userSpaceOnUse">
<stop stop-color="#ECC4D7"/>
<stop offset="0.42" stop-color="#EFD4D1"/>
<stop offset="1" stop-color="#F2EAC9"/>
</linearGradient>
<linearGradient id="paint8_linear_2857_25626" x1="192.011" y1="21.3872" x2="206.976" y2="21.3872" gradientUnits="userSpaceOnUse">
<stop stop-color="#ECC4D7"/>
<stop offset="0.42" stop-color="#EFD4D1"/>
<stop offset="1" stop-color="#F2EAC9"/>
</linearGradient>
<linearGradient id="paint9_linear_2857_25626" x1="203.533" y1="19.6157" x2="202.021" y2="7.87194" gradientUnits="userSpaceOnUse">
<stop stop-color="#ECC4D7"/>
<stop offset="0.42" stop-color="#EFD4D1"/>
<stop offset="1" stop-color="#F2EAC9"/>
</linearGradient>
<linearGradient id="paint10_linear_2857_25626" x1="164.516" y1="15.0694" x2="151.828" y2="7.14058" gradientUnits="userSpaceOnUse">
<stop stop-color="#ECC4D7"/>
<stop offset="0.42" stop-color="#EFD4D1"/>
<stop offset="1" stop-color="#F2EAC9"/>
</linearGradient>
<linearGradient id="paint11_linear_2857_25626" x1="155.643" y1="7.53063" x2="163.149" y2="-1.62709" gradientUnits="userSpaceOnUse">
<stop stop-color="#ECC4D7"/>
<stop offset="0.42" stop-color="#EFD4D1"/>
<stop offset="1" stop-color="#F2EAC9"/>
</linearGradient>
<linearGradient id="paint12_linear_2857_25626" x1="133.903" y1="118.118" x2="135.84" y2="126.188" gradientUnits="userSpaceOnUse">
<stop stop-color="#68E1FD"/>
<stop offset="0.01" stop-color="#67DDF9"/>
<stop offset="0.12" stop-color="#5CB3CE"/>
<stop offset="0.24" stop-color="#538EA9"/>
<stop offset="0.37" stop-color="#4C718B"/>
<stop offset="0.5" stop-color="#465A73"/>
<stop offset="0.63" stop-color="#424A63"/>
<stop offset="0.79" stop-color="#404059"/>
<stop offset="0.99" stop-color="#3F3D56"/>
</linearGradient>
<linearGradient id="paint13_linear_2857_25626" x1="181.652" y1="123.558" x2="184.88" y2="128.076" gradientUnits="userSpaceOnUse">
<stop stop-color="#68E1FD"/>
<stop offset="0.01" stop-color="#67DDF9"/>
<stop offset="0.12" stop-color="#5CB3CE"/>
<stop offset="0.24" stop-color="#538EA9"/>
<stop offset="0.37" stop-color="#4C718B"/>
<stop offset="0.5" stop-color="#465A73"/>
<stop offset="0.63" stop-color="#424A63"/>
<stop offset="0.79" stop-color="#404059"/>
<stop offset="0.99" stop-color="#3F3D56"/>
</linearGradient>
<linearGradient id="paint14_linear_2857_25626" x1="193.466" y1="55.8613" x2="174.421" y2="44.8865" gradientUnits="userSpaceOnUse">
<stop/>
<stop offset="0.98" stop-opacity="0"/>
</linearGradient>
<clipPath id="clip0_2857_25626">
<rect width="206.952" height="150" fill="white" transform="translate(0.0234375)"/>
</clipPath>
</defs>
</svg>
